<svg width="28" height="20" viewBox="0 0 28 20" fill="none" xmlns="http://www.w3.org/2000/svg">
<path d="M25.9091 8.81818H27.4091V11.8182H25.9091V8.81818ZM2.99997 10.3182L2.01221 11.447L0.77956 10.3685L1.96211 9.2352L2.99997 10.3182ZM9.59847 1.91702L10.6815 0.87916L12.7572 3.04512L11.6742 4.08298L9.59847 1.91702ZM11.6241 15.8711L12.753 16.8589L10.7774 19.1166L9.64857 18.1289L11.6241 15.8711ZM25.9091 11.8182H2.99997V8.81818H25.9091V11.8182ZM1.96211 9.2352L9.59847 1.91702L11.6742 4.08298L4.03783 11.4012L1.96211 9.2352ZM3.98773 9.18932L11.6241 15.8711L9.64857 18.1289L2.01221 11.447L3.98773 9.18932Z" fill="#27242B"/>
</svg>
