<svg width="28" height="20" viewBox="0 0 28 20" fill="none" xmlns="http://www.w3.org/2000/svg">
<path d="M2 8.81818H0.5V11.8182H2V8.81818ZM24.9091 10.3182L25.8968 11.447L27.1295 10.3685L25.9469 9.2352L24.9091 10.3182ZM18.3106 1.91702L17.2276 0.87916L15.1519 3.04512L16.2349 4.08298L18.3106 1.91702ZM16.285 15.8711L15.1561 16.8589L17.1316 19.1166L18.2605 18.1289L16.285 15.8711ZM2 11.8182H24.9091V8.81818H2V11.8182ZM25.9469 9.2352L18.3106 1.91702L16.2349 4.08298L23.8712 11.4012L25.9469 9.2352ZM23.9213 9.18932L16.285 15.8711L18.2605 18.1289L25.8968 11.447L23.9213 9.18932Z" fill="#27242B"/>
</svg>
