<svg width="170" height="34" viewBox="0 0 170 34" fill="none" xmlns="http://www.w3.org/2000/svg">
<path d="M114.623 18.0625V24H112.963V9.72266H116.879C118.63 9.72266 119.923 10.0579 120.756 10.7285C121.596 11.3991 122.016 12.4082 122.016 13.7559C122.016 15.6439 121.059 16.9199 119.145 17.584L123.021 24H121.059L117.602 18.0625H114.623ZM114.623 16.6367H116.898C118.07 16.6367 118.93 16.4056 119.477 15.9434C120.023 15.4746 120.297 14.7747 120.297 13.8438C120.297 12.8997 120.017 12.2194 119.457 11.8027C118.904 11.3861 118.012 11.1777 116.781 11.1777H114.623V16.6367Z" fill="black"/>
<path d="M131.664 24L131.342 22.4766H131.264C130.73 23.1471 130.196 23.6029 129.662 23.8438C129.135 24.0781 128.474 24.1953 127.68 24.1953C126.618 24.1953 125.785 23.9219 125.18 23.375C124.581 22.8281 124.281 22.0501 124.281 21.041C124.281 18.8796 126.01 17.7467 129.467 17.6426L131.283 17.584V16.9199C131.283 16.0801 131.101 15.4616 130.736 15.0645C130.378 14.6608 129.802 14.459 129.008 14.459C128.116 14.459 127.107 14.7324 125.98 15.2793L125.482 14.0391C126.01 13.7526 126.586 13.528 127.211 13.3652C127.842 13.2025 128.474 13.1211 129.105 13.1211C130.382 13.1211 131.326 13.4043 131.938 13.9707C132.556 14.5371 132.865 15.4453 132.865 16.6953V24H131.664ZM128.002 22.8574C129.011 22.8574 129.802 22.5807 130.375 22.0273C130.954 21.474 131.244 20.6992 131.244 19.7031V18.7363L129.623 18.8047C128.334 18.8503 127.403 19.0521 126.83 19.4102C126.264 19.7617 125.98 20.3118 125.98 21.0605C125.98 21.6465 126.156 22.0924 126.508 22.3984C126.866 22.7044 127.364 22.8574 128.002 22.8574Z" fill="black"/>
<path d="M139.672 22.8574C139.958 22.8574 140.235 22.8379 140.502 22.7988C140.769 22.7533 140.98 22.7077 141.137 22.6621V23.9023C140.961 23.987 140.701 24.0553 140.355 24.1074C140.017 24.166 139.711 24.1953 139.438 24.1953C137.367 24.1953 136.332 23.1048 136.332 20.9238V14.5566H134.799V13.7754L136.332 13.1016L137.016 10.8164H137.953V13.2969H141.059V14.5566H137.953V20.8555C137.953 21.5 138.106 21.9948 138.412 22.3398C138.718 22.6849 139.138 22.8574 139.672 22.8574Z" fill="black"/>
<path d="M144.906 24H143.285V13.2969H144.906V24ZM143.148 10.3965C143.148 10.0254 143.24 9.75521 143.422 9.58594C143.604 9.41016 143.832 9.32227 144.105 9.32227C144.366 9.32227 144.59 9.41016 144.779 9.58594C144.968 9.76172 145.062 10.0319 145.062 10.3965C145.062 10.7611 144.968 11.0345 144.779 11.2168C144.59 11.3926 144.366 11.4805 144.105 11.4805C143.832 11.4805 143.604 11.3926 143.422 11.2168C143.24 11.0345 143.148 10.7611 143.148 10.3965Z" fill="black"/>
<path d="M155.668 24V17.0762C155.668 16.2038 155.469 15.5527 155.072 15.123C154.675 14.6934 154.053 14.4785 153.207 14.4785C152.087 14.4785 151.267 14.7812 150.746 15.3867C150.225 15.9922 149.965 16.9915 149.965 18.3848V24H148.344V13.2969H149.662L149.926 14.7617H150.004C150.336 14.2344 150.801 13.8275 151.4 13.541C151.999 13.248 152.667 13.1016 153.402 13.1016C154.691 13.1016 155.661 13.4141 156.312 14.0391C156.964 14.6576 157.289 15.6504 157.289 17.0176V24H155.668Z" fill="black"/>
<path d="M169.389 13.2969V14.3223L167.406 14.5566C167.589 14.7845 167.751 15.084 167.895 15.4551C168.038 15.8197 168.109 16.2331 168.109 16.6953C168.109 17.7435 167.751 18.5801 167.035 19.2051C166.319 19.8301 165.336 20.1426 164.086 20.1426C163.767 20.1426 163.467 20.1165 163.188 20.0645C162.497 20.429 162.152 20.888 162.152 21.4414C162.152 21.7344 162.273 21.9525 162.514 22.0957C162.755 22.2324 163.168 22.3008 163.754 22.3008H165.648C166.807 22.3008 167.696 22.5449 168.314 23.0332C168.939 23.5215 169.252 24.2311 169.252 25.1621C169.252 26.347 168.777 27.2487 167.826 27.8672C166.876 28.4922 165.489 28.8047 163.666 28.8047C162.266 28.8047 161.186 28.5443 160.424 28.0234C159.669 27.5026 159.291 26.7669 159.291 25.8164C159.291 25.1654 159.499 24.6022 159.916 24.127C160.333 23.6517 160.919 23.3294 161.674 23.1602C161.4 23.0365 161.169 22.8444 160.98 22.584C160.798 22.3236 160.707 22.0208 160.707 21.6758C160.707 21.2852 160.811 20.9434 161.02 20.6504C161.228 20.3574 161.557 20.0742 162.006 19.8008C161.452 19.5729 161 19.1855 160.648 18.6387C160.303 18.0918 160.131 17.4668 160.131 16.7637C160.131 15.5918 160.482 14.6901 161.186 14.0586C161.889 13.4206 162.885 13.1016 164.174 13.1016C164.734 13.1016 165.238 13.1667 165.688 13.2969H169.389ZM160.854 25.7969C160.854 26.3763 161.098 26.8158 161.586 27.1152C162.074 27.4147 162.774 27.5645 163.686 27.5645C165.046 27.5645 166.052 27.3594 166.703 26.9492C167.361 26.5456 167.689 25.9954 167.689 25.2988C167.689 24.7194 167.51 24.3158 167.152 24.0879C166.794 23.8665 166.12 23.7559 165.131 23.7559H163.188C162.452 23.7559 161.879 23.9316 161.469 24.2832C161.059 24.6348 160.854 25.1393 160.854 25.7969ZM161.732 16.7246C161.732 17.4733 161.944 18.0397 162.367 18.4238C162.79 18.8079 163.38 19 164.135 19C165.717 19 166.508 18.2318 166.508 16.6953C166.508 15.0872 165.707 14.2832 164.105 14.2832C163.344 14.2832 162.758 14.4883 162.348 14.8984C161.938 15.3086 161.732 15.9173 161.732 16.7246Z" fill="black"/>
<path d="M24.8536 11.7434H13.0578V15.255H21.4235C21.0103 20.1793 16.9266 22.2793 13.072 22.2793C8.14031 22.2793 3.83686 18.3864 3.83686 12.9302C3.83686 7.61501 7.93914 3.52158 13.0828 3.52158C17.0512 3.52158 19.3896 6.05954 19.3896 6.05954L21.8405 3.51335C21.8405 3.51335 18.6947 1.24951e-09 12.9575 1.24951e-09C5.65182 -0.000101517 0 6.18583 0 12.8675C0 19.4147 5.31647 25.7989 13.1437 25.7989C20.0278 25.7989 25.067 21.0677 25.067 14.0715C25.067 12.5955 24.8534 11.7424 24.8534 11.7424L24.8536 11.7434Z" fill="#3174F1"/>
<path d="M34.4977 9.14844C29.6436 9.14844 26.1648 12.9181 26.1648 17.3146C26.1648 21.7761 29.5391 25.6158 34.5548 25.6158C39.0953 25.6158 42.8152 22.1685 42.8152 17.4105C42.8152 11.957 38.4882 9.14844 34.4977 9.14844ZM34.546 12.3826C36.9331 12.3826 39.1952 14.2997 39.1952 17.3887C39.1952 20.4122 36.9427 22.3839 34.535 22.3839C31.8896 22.3839 29.8026 20.2792 29.8026 17.3647C29.8026 14.5127 31.8637 12.3826 34.546 12.3826Z" fill="#FC2C25"/>
<path d="M52.5203 9.14844C47.7195 9.14844 44.279 12.9181 44.279 17.3146C44.279 21.7761 47.6162 25.6158 52.5768 25.6158C57.0674 25.6158 60.7464 22.1685 60.7464 17.4105C60.7464 11.957 56.4669 9.14844 52.5203 9.14844ZM52.5681 12.3826C54.9289 12.3826 57.1661 14.2997 57.1661 17.3887C57.1661 20.4122 54.9385 22.3839 52.5572 22.3839C49.9408 22.3839 47.8768 20.2792 47.8768 17.3647C47.8768 14.5127 49.9153 12.3826 52.5681 12.3826Z" fill="#FFBA00"/>
<path d="M70.176 9.14844C65.7159 9.14844 62.2102 13.04 62.2102 17.408C62.2102 22.3835 66.2745 25.683 70.099 25.683C72.4639 25.683 73.7213 24.7478 74.6497 23.6744V25.3044C74.6497 28.1563 72.9116 29.8641 70.288 29.8641C67.7535 29.8641 66.4823 27.9867 66.0405 26.9213L62.8516 28.2494C63.9828 30.6325 66.2602 33.1176 70.3144 33.1176C74.7489 33.1176 78.1286 30.335 78.1286 24.4992V9.64545H74.6498V11.0457C73.5801 9.89735 72.1173 9.14864 70.176 9.14864V9.14844ZM70.4988 12.3888C72.6854 12.3888 74.9308 14.2489 74.9308 17.4255C74.9308 20.6543 72.6902 22.4338 70.4504 22.4338C68.0727 22.4338 65.8603 20.5104 65.8603 17.4562C65.8603 14.2826 68.158 12.3888 70.4987 12.3888H70.4988Z" fill="#3174F1"/>
<path d="M93.5373 9.14844C89.3387 9.14844 85.8134 12.4665 85.8134 17.3625C85.8134 22.5433 89.7428 25.6158 93.9406 25.6158C97.4441 25.6158 99.5944 23.712 100.878 22.0062L98.0152 20.1144C97.2724 21.2594 96.0306 22.3785 93.9581 22.3785C91.6302 22.3785 90.5598 21.1123 89.8967 19.8858L101 15.3096L100.424 13.9684C99.3509 11.3422 96.8488 9.14894 93.5377 9.14894L93.5373 9.14844ZM93.6819 12.3117C95.1949 12.3117 96.2837 13.1107 96.7461 14.0686L89.3312 17.147C89.0115 14.7638 91.2847 12.3117 93.6819 12.3117Z" fill="#FC2C25"/>
<path d="M80.5072 25.2502H84.1667V0.915039H80.5072V25.2502Z" fill="#00AC47"/>
</svg>
