<svg width="148" height="51" viewBox="0 0 148 51" fill="none" xmlns="http://www.w3.org/2000/svg">
<path d="M73.7412 12.3018V16H72.0117V6.04688H75.8193C76.9313 6.04688 77.8132 6.33626 78.4648 6.91504C79.1211 7.49382 79.4492 8.25944 79.4492 9.21191C79.4492 10.1872 79.1279 10.946 78.4854 11.4883C77.8473 12.0306 76.9518 12.3018 75.7988 12.3018H73.7412ZM73.7412 10.9141H75.8193C76.4346 10.9141 76.904 10.7705 77.2275 10.4834C77.5511 10.1917 77.7129 9.77246 77.7129 9.22559C77.7129 8.68783 77.5488 8.25944 77.2207 7.94043C76.8926 7.61686 76.4414 7.45052 75.8672 7.44141H73.7412V10.9141ZM80.3994 12.2334C80.3994 11.5088 80.543 10.8571 80.8301 10.2783C81.1172 9.69499 81.5205 9.24837 82.04 8.93848C82.5596 8.62402 83.1566 8.4668 83.8311 8.4668C84.8291 8.4668 85.638 8.78809 86.2578 9.43066C86.8822 10.0732 87.2194 10.9255 87.2695 11.9873L87.2764 12.377C87.2764 13.1061 87.1351 13.7578 86.8525 14.332C86.5745 14.9062 86.1735 15.3506 85.6494 15.665C85.1299 15.9795 84.5283 16.1367 83.8447 16.1367C82.8011 16.1367 81.9648 15.7904 81.3359 15.0977C80.7116 14.4004 80.3994 13.473 80.3994 12.3154V12.2334ZM82.0605 12.377C82.0605 13.138 82.2178 13.735 82.5322 14.168C82.8467 14.5964 83.2842 14.8105 83.8447 14.8105C84.4053 14.8105 84.8405 14.5918 85.1504 14.1543C85.4648 13.7168 85.6221 13.0765 85.6221 12.2334C85.6221 11.486 85.4603 10.8936 85.1367 10.4561C84.8177 10.0186 84.3825 9.7998 83.8311 9.7998C83.2887 9.7998 82.8581 10.0163 82.5391 10.4492C82.2201 10.8776 82.0605 11.5202 82.0605 12.377ZM92.8271 13.9902C92.8271 13.694 92.7041 13.4684 92.458 13.3135C92.2165 13.1585 91.8132 13.0218 91.248 12.9033C90.6829 12.7848 90.2113 12.6344 89.833 12.4521C89.0036 12.0511 88.5889 11.4701 88.5889 10.709C88.5889 10.071 88.8577 9.53776 89.3955 9.10938C89.9333 8.68099 90.6169 8.4668 91.4463 8.4668C92.3304 8.4668 93.0436 8.68555 93.5859 9.12305C94.1328 9.56055 94.4062 10.1279 94.4062 10.8252H92.7451C92.7451 10.5062 92.6266 10.2419 92.3896 10.0322C92.1527 9.81803 91.8382 9.71094 91.4463 9.71094C91.0817 9.71094 90.7832 9.79525 90.5508 9.96387C90.3229 10.1325 90.209 10.3581 90.209 10.6406C90.209 10.8958 90.3161 11.0941 90.5303 11.2354C90.7445 11.3766 91.1774 11.5202 91.8291 11.666C92.4808 11.8073 92.9912 11.9782 93.3604 12.1787C93.734 12.3747 94.0098 12.6117 94.1875 12.8896C94.3698 13.1676 94.4609 13.5049 94.4609 13.9014C94.4609 14.5667 94.1852 15.1068 93.6338 15.5215C93.0824 15.9316 92.36 16.1367 91.4668 16.1367C90.8607 16.1367 90.3206 16.0273 89.8467 15.8086C89.3727 15.5898 89.0036 15.2891 88.7393 14.9062C88.4749 14.5234 88.3428 14.111 88.3428 13.6689H89.9561C89.9788 14.0609 90.127 14.3639 90.4004 14.5781C90.6738 14.7878 91.0361 14.8926 91.4873 14.8926C91.9248 14.8926 92.2575 14.8105 92.4854 14.6465C92.7132 14.4779 92.8271 14.2591 92.8271 13.9902ZM97.9951 6.80566V8.60352H99.3008V9.83398H97.9951V13.9629C97.9951 14.2454 98.0498 14.4505 98.1592 14.5781C98.2731 14.7012 98.4736 14.7627 98.7607 14.7627C98.9521 14.7627 99.1458 14.7399 99.3418 14.6943V15.9795C98.9635 16.0843 98.599 16.1367 98.248 16.1367C96.972 16.1367 96.334 15.4326 96.334 14.0244V9.83398H95.1172V8.60352H96.334V6.80566H97.9951ZM103.833 16.1367C102.78 16.1367 101.926 15.8063 101.27 15.1455C100.618 14.4801 100.292 13.596 100.292 12.4932V12.2881C100.292 11.5498 100.433 10.8913 100.716 10.3125C101.003 9.72917 101.404 9.27572 101.919 8.95215C102.434 8.62858 103.008 8.4668 103.642 8.4668C104.649 8.4668 105.426 8.78809 105.973 9.43066C106.524 10.0732 106.8 10.9824 106.8 12.1582V12.8281H101.967C102.017 13.4388 102.22 13.9219 102.575 14.2773C102.935 14.6328 103.386 14.8105 103.929 14.8105C104.69 14.8105 105.31 14.5029 105.788 13.8877L106.684 14.7422C106.387 15.1842 105.991 15.5283 105.494 15.7744C105.002 16.016 104.448 16.1367 103.833 16.1367ZM103.635 9.7998C103.179 9.7998 102.81 9.95931 102.527 10.2783C102.249 10.5973 102.072 11.0417 101.994 11.6113H105.159V11.4883C105.123 10.9323 104.975 10.513 104.715 10.2305C104.455 9.94336 104.095 9.7998 103.635 9.7998ZM107.784 12.2471C107.784 11.1077 108.049 10.194 108.577 9.50586C109.106 8.81315 109.814 8.4668 110.703 8.4668C111.487 8.4668 112.12 8.74023 112.604 9.28711V5.5H114.265V16H112.761L112.679 15.2344C112.182 15.8359 111.519 16.1367 110.689 16.1367C109.824 16.1367 109.122 15.7881 108.584 15.0908C108.051 14.3936 107.784 13.4456 107.784 12.2471ZM109.445 12.3906C109.445 13.1426 109.589 13.7305 109.876 14.1543C110.168 14.5736 110.58 14.7832 111.113 14.7832C111.792 14.7832 112.289 14.4801 112.604 13.874V10.7158C112.298 10.1234 111.806 9.82715 111.127 9.82715C110.589 9.82715 110.174 10.0413 109.883 10.4697C109.591 10.8936 109.445 11.5339 109.445 12.3906ZM119.173 12.2334C119.173 11.5088 119.316 10.8571 119.604 10.2783C119.891 9.69499 120.294 9.24837 120.813 8.93848C121.333 8.62402 121.93 8.4668 122.604 8.4668C123.603 8.4668 124.411 8.78809 125.031 9.43066C125.656 10.0732 125.993 10.9255 126.043 11.9873L126.05 12.377C126.05 13.1061 125.909 13.7578 125.626 14.332C125.348 14.9062 124.947 15.3506 124.423 15.665C123.903 15.9795 123.302 16.1367 122.618 16.1367C121.575 16.1367 120.738 15.7904 120.109 15.0977C119.485 14.4004 119.173 13.473 119.173 12.3154V12.2334ZM120.834 12.377C120.834 13.138 120.991 13.735 121.306 14.168C121.62 14.5964 122.058 14.8105 122.618 14.8105C123.179 14.8105 123.614 14.5918 123.924 14.1543C124.238 13.7168 124.396 13.0765 124.396 12.2334C124.396 11.486 124.234 10.8936 123.91 10.4561C123.591 10.0186 123.156 9.7998 122.604 9.7998C122.062 9.7998 121.632 10.0163 121.312 10.4492C120.993 10.8776 120.834 11.5202 120.834 12.377ZM128.996 8.60352L129.044 9.45801C129.591 8.7972 130.309 8.4668 131.197 8.4668C132.738 8.4668 133.521 9.34863 133.549 11.1123V16H131.888V11.208C131.888 10.7386 131.785 10.3923 131.58 10.1689C131.38 9.94108 131.049 9.82715 130.589 9.82715C129.919 9.82715 129.42 10.1302 129.092 10.7363V16H127.431V8.60352H128.996Z" fill="#A7A7A7"/>
<path d="M11.9532 25.5001C11.9532 22.9733 12.6494 20.6063 13.8588 18.5796V9.98242H5.26169C1.84956 14.4139 0 19.8146 0 25.5001C0 31.1857 1.84956 36.5864 5.26169 41.0179H13.8588V32.4207C12.6494 30.394 11.9532 28.0269 11.9532 25.5001Z" fill="#FFBA00"/>
<path d="M25.5001 39.0464L19.5235 45.023L25.5001 50.9996C31.1858 50.9996 36.5864 49.15 41.0178 45.7379V37.1499H32.4299C30.3854 38.3637 28.0084 39.0464 25.5001 39.0464Z" fill="#00AC47"/>
<path d="M13.8588 32.4209L5.26169 41.018C5.93724 41.8954 6.67286 42.7356 7.46884 43.5317C12.2852 48.3479 18.6888 51.0004 25.5001 51.0004V39.0472C20.5571 39.0472 16.2248 36.3857 13.8588 32.4209Z" fill="#00AC47"/>
<path d="M51.0002 25.5005C51.0002 23.949 50.8598 22.3947 50.5827 20.8809L50.3585 19.6558H25.5001V31.6089H37.5979C36.4231 33.9459 34.6168 35.8525 32.4298 37.151L41.0177 45.739C41.8951 45.0635 42.7353 44.3278 43.5314 43.5318C48.3477 38.7154 51.0002 32.3118 51.0002 25.5005Z" fill="#3174F1"/>
<path d="M35.0793 15.9209L36.1358 16.9774L44.588 8.52531L43.5315 7.46885C38.7152 2.65251 32.3115 0 25.5001 0L19.5235 5.97659L25.5001 11.9532C29.1185 11.9532 32.5205 13.3623 35.0793 15.9209Z" fill="#FC2C25"/>
<path d="M25.5001 11.9532V0C18.6888 0 12.2852 2.65251 7.46875 7.46875C6.67277 8.26473 5.93715 9.10494 5.2616 9.9824L13.8587 18.5795C16.2248 14.6148 20.5571 11.9532 25.5001 11.9532Z" fill="#FC2C25"/>
<path d="M89.7616 31.8649H80.8571V34.5158H87.1723C86.8603 38.233 83.7776 39.8183 80.8678 39.8183C77.145 39.8183 73.8964 36.8796 73.8964 32.7608C73.8964 28.7485 76.9931 25.6584 80.876 25.6584C83.8717 25.6584 85.6369 27.5743 85.6369 27.5743L87.487 25.6522C87.487 25.6522 85.1124 23 80.7814 23C75.2665 22.9999 71 27.6696 71 32.7135C71 37.6559 75.0133 42.4752 80.922 42.4752C86.1187 42.4752 89.9227 38.9037 89.9227 33.6224C89.9227 32.5082 89.7615 31.8642 89.7615 31.8642L89.7616 31.8649Z" fill="#4A8AF4"/>
<path d="M97.0418 29.9062C93.3775 29.9062 90.7514 32.7519 90.7514 36.0708C90.7514 39.4387 93.2986 42.3372 97.0848 42.3372C100.512 42.3372 103.321 39.7349 103.321 36.1431C103.321 32.0264 100.054 29.9062 97.0418 29.9062ZM97.0782 32.3477C98.8802 32.3477 100.588 33.7948 100.588 36.1267C100.588 38.4091 98.8875 39.8975 97.07 39.8975C95.0729 39.8975 93.4975 38.3087 93.4975 36.1086C93.4975 33.9556 95.0534 32.3477 97.0782 32.3477Z" fill="#4A8AF4"/>
<path d="M110.647 29.9062C107.023 29.9062 104.426 32.7519 104.426 36.0708C104.426 39.4387 106.945 42.3372 110.689 42.3372C114.079 42.3372 116.857 39.7349 116.857 36.1431C116.857 32.0264 113.626 29.9062 110.647 29.9062ZM110.683 32.3477C112.465 32.3477 114.154 33.7948 114.154 36.1267C114.154 38.4091 112.472 39.8975 110.675 39.8975C108.7 39.8975 107.142 38.3087 107.142 36.1086C107.142 33.9556 108.68 32.3477 110.683 32.3477Z" fill="#4A8AF4"/>
<path d="M123.975 29.9062C120.608 29.9062 117.962 32.844 117.962 36.1413C117.962 39.8972 121.03 42.3879 123.917 42.3879C125.702 42.3879 126.651 41.682 127.352 40.8717V42.1021C127.352 44.255 126.04 45.5442 124.059 45.5442C122.146 45.5442 121.186 44.127 120.853 43.3227L118.446 44.3253C119.3 46.1242 121.019 48.0002 124.079 48.0002C127.427 48.0002 129.978 45.8997 129.978 41.4943V30.2814H127.352V31.3385C126.545 30.4716 125.44 29.9064 123.975 29.9064V29.9062ZM124.218 32.3523C125.869 32.3523 127.564 33.7565 127.564 36.1545C127.564 38.5919 125.873 39.9352 124.182 39.9352C122.387 39.9352 120.717 38.4832 120.717 36.1776C120.717 33.782 122.451 32.3523 124.218 32.3523H124.218Z" fill="#4A8AF4"/>
<path d="M141.61 29.9062C138.44 29.9062 135.779 32.411 135.779 36.107C135.779 40.0178 138.745 42.3372 141.914 42.3372C144.559 42.3372 146.182 40.9001 147.151 39.6124L144.99 38.1843C144.429 39.0487 143.492 39.8934 141.928 39.8934C140.17 39.8934 139.362 38.9376 138.862 38.0117L147.243 34.5572L146.808 33.5448C145.999 31.5623 144.11 29.9066 141.61 29.9066L141.61 29.9062ZM141.719 32.2942C142.861 32.2942 143.683 32.8973 144.032 33.6204L138.435 35.9443C138.193 34.1452 139.909 32.2942 141.719 32.2942Z" fill="#4A8AF4"/>
<path d="M131.774 42.0607H134.536V23.6904H131.774V42.0607Z" fill="#4A8AF4"/>
</svg>
