<svg width="169" height="24" viewBox="0 0 169 24" fill="none" xmlns="http://www.w3.org/2000/svg">
<path d="M11.4264 0.67167C11.7377 -0.22389 13.0042 -0.22389 13.3155 0.67167L15.6692 7.44289C15.8065 7.83797 16.1752 8.10583 16.5934 8.11436L23.7605 8.26041C24.7085 8.27973 25.0999 9.48427 24.3443 10.0571L18.6318 14.388C18.2985 14.6407 18.1577 15.0741 18.2788 15.4744L20.3547 22.3359C20.6292 23.2434 19.6046 23.9879 18.8263 23.4463L12.9422 19.3517C12.5988 19.1128 12.1431 19.1128 11.7998 19.3517L5.91561 23.4463C5.13736 23.9879 4.11272 23.2434 4.38727 22.3359L6.46313 15.4744C6.58425 15.0741 6.44342 14.6407 6.11012 14.388L0.397631 10.0571C-0.357901 9.48428 0.0334789 8.27973 0.981403 8.26041L8.14855 8.11436C8.56672 8.10583 8.93541 7.83797 9.07274 7.44289L11.4264 0.67167Z" fill="#F56527"/>
<path d="M47.4264 0.67167C47.7377 -0.22389 49.0042 -0.22389 49.3155 0.67167L51.6692 7.44289C51.8065 7.83797 52.1752 8.10583 52.5934 8.11436L59.7605 8.26041C60.7085 8.27973 61.0999 9.48427 60.3443 10.0571L54.6318 14.388C54.2985 14.6407 54.1577 15.0741 54.2788 15.4744L56.3547 22.3359C56.6292 23.2434 55.6046 23.9879 54.8263 23.4463L48.9422 19.3517C48.5988 19.1128 48.1431 19.1128 47.7998 19.3517L41.9156 23.4463C41.1374 23.9879 40.1127 23.2434 40.3873 22.3359L42.4631 15.4744C42.5842 15.0741 42.4434 14.6407 42.1101 14.388L36.3976 10.0571C35.6421 9.48428 36.0335 8.27973 36.9814 8.26041L44.1485 8.11436C44.5667 8.10583 44.9354 7.83797 45.0727 7.44289L47.4264 0.67167Z" fill="#F56527"/>
<path d="M83.4264 0.67167C83.7377 -0.22389 85.0042 -0.22389 85.3155 0.67167L87.6692 7.44289C87.8065 7.83797 88.1752 8.10583 88.5934 8.11436L95.7605 8.26041C96.7085 8.27973 97.0999 9.48427 96.3443 10.0571L90.6318 14.388C90.2985 14.6407 90.1577 15.0741 90.2788 15.4744L92.3547 22.3359C92.6292 23.2434 91.6046 23.9879 90.8263 23.4463L84.9422 19.3517C84.5988 19.1128 84.1431 19.1128 83.7998 19.3517L77.9156 23.4463C77.1374 23.9879 76.1127 23.2434 76.3873 22.3359L78.4631 15.4744C78.5842 15.0741 78.4434 14.6407 78.1101 14.388L72.3976 10.0571C71.6421 9.48428 72.0335 8.27973 72.9814 8.26041L80.1485 8.11436C80.5667 8.10583 80.9354 7.83797 81.0727 7.44289L83.4264 0.67167Z" fill="#F56527"/>
<path d="M119.426 0.67167C119.738 -0.22389 121.004 -0.22389 121.316 0.67167L123.669 7.44289C123.807 7.83797 124.175 8.10583 124.593 8.11436L131.761 8.26041C132.708 8.27973 133.1 9.48427 132.344 10.0571L126.632 14.388C126.299 14.6407 126.158 15.0741 126.279 15.4744L128.355 22.3359C128.629 23.2434 127.605 23.9879 126.826 23.4463L120.942 19.3517C120.599 19.1128 120.143 19.1128 119.8 19.3517L113.916 23.4463C113.137 23.9879 112.113 23.2434 112.387 22.3359L114.463 15.4744C114.584 15.0741 114.443 14.6407 114.11 14.388L108.398 10.0571C107.642 9.48428 108.033 8.27973 108.981 8.26041L116.149 8.11436C116.567 8.10583 116.935 7.83797 117.073 7.44289L119.426 0.67167Z" fill="#F56527"/>
<path d="M155.426 0.67167C155.738 -0.22389 157.004 -0.22389 157.316 0.67167L159.669 7.44289C159.807 7.83797 160.175 8.10583 160.593 8.11436L167.761 8.26041C168.708 8.27973 169.1 9.48427 168.344 10.0571L162.632 14.388C162.299 14.6407 162.158 15.0741 162.279 15.4744L164.355 22.3359C164.629 23.2434 163.605 23.9879 162.826 23.4463L156.942 19.3517C156.599 19.1128 156.143 19.1128 155.8 19.3517L149.916 23.4463C149.137 23.9879 148.113 23.2434 148.387 22.3359L150.463 15.4744C150.584 15.0741 150.443 14.6407 150.11 14.388L144.398 10.0571C143.642 9.48428 144.033 8.27973 144.981 8.26041L152.149 8.11436C152.567 8.10583 152.935 7.83797 153.073 7.44289L155.426 0.67167Z" fill="#F56527"/>
</svg>
