<svg width="137" height="34" viewBox="0 0 137 34" fill="none" xmlns="http://www.w3.org/2000/svg">
<path d="M130.29 13.4838C131.637 14.041 132.817 14.7866 133.815 15.7127C134.814 16.6467 135.598 17.7297 136.16 18.9776C136.723 20.2255 137 21.5362 137 22.9175C137 24.3302 136.723 25.6566 136.16 26.9045C135.598 28.1524 134.821 29.2433 133.815 30.1694C132.817 31.1033 131.637 31.8332 130.29 32.3748C128.943 32.9163 127.478 33.1832 125.901 33.1832C124.325 33.1832 122.86 32.9163 121.513 32.3748C120.166 31.8332 118.986 31.0955 117.988 30.1694C116.989 29.2354 116.205 28.1524 115.643 26.9045C115.08 25.6566 114.803 24.3302 114.803 22.9175C114.803 21.5362 115.08 20.2255 115.643 18.9776C116.205 17.7297 116.982 16.6388 117.988 15.7127C118.986 14.7788 120.166 14.041 121.513 13.4838C122.86 12.9265 124.325 12.6519 125.901 12.6519C127.478 12.6519 128.936 12.9265 130.29 13.4838ZM128.674 31.7783C129.34 31.2211 129.831 30.4912 130.156 29.5965C130.472 28.6939 130.67 27.6579 130.75 26.4885C130.829 25.3191 130.861 24.134 130.861 22.9254C130.861 21.7246 130.821 20.5473 130.75 19.3857C130.67 18.232 130.48 17.1961 130.156 16.3013C129.839 15.3988 129.347 14.6689 128.674 14.1116C128.009 13.5544 127.082 13.2797 125.901 13.2797C124.721 13.2797 123.794 13.5544 123.129 14.1116C122.463 14.6689 121.972 15.3988 121.647 16.3013C121.331 17.2039 121.133 18.232 121.053 19.3857C120.974 20.5395 120.942 21.7246 120.942 22.9254C120.942 24.1262 120.982 25.3113 121.053 26.4885C121.133 27.6579 121.323 28.6939 121.647 29.5965C121.964 30.499 122.455 31.2289 123.129 31.7783C123.794 32.3355 124.721 32.6102 125.901 32.6102C127.082 32.6102 128.009 32.3355 128.674 31.7783Z" fill="#2F343F"/>
<path d="M79.036 23.5846C77.1744 23.5846 75.6693 25.0758 75.6693 26.9202C75.6693 28.3957 76.6357 29.6436 77.9745 30.0831C77.9904 30.0831 77.9983 30.0909 78.0062 30.0909C78.2042 30.1537 78.4023 30.1929 78.6083 30.2243C78.9806 30.2871 79.1073 30.4755 79.0836 30.7266C79.0281 31.1112 78.5845 31.6213 78.03 31.9353C77.1982 32.3826 76.1683 32.6102 74.9563 32.6102C73.5937 32.6102 72.5322 32.3277 71.7717 31.7548C71.0112 31.1818 70.4409 30.4519 70.0448 29.5651C69.6487 28.6782 69.411 27.6893 69.316 26.5905C69.2209 25.4918 69.1813 24.4008 69.1813 23.3256V21.3007H82.6009C82.6009 19.7703 82.3315 18.4518 81.7849 17.3609C81.2383 16.2621 80.5412 15.3752 79.6936 14.6767C78.8459 13.9861 77.8874 13.4759 76.8258 13.1463C75.7643 12.8167 74.7028 12.6519 73.6413 12.6519C72.152 12.6519 70.7657 12.9422 69.4823 13.5309C68.1911 14.1195 67.0741 14.8808 66.1155 15.8304C65.157 16.7801 64.4124 17.8632 63.8658 19.0954C63.3191 20.3275 63.0498 21.5911 63.0498 22.8783C63.0498 24.5029 63.335 25.947 63.9133 27.2263C64.4916 28.5055 65.2838 29.5886 66.2978 30.4676C67.3117 31.3545 68.5 32.0295 69.8705 32.4925C71.233 32.9556 72.7065 33.191 74.2829 33.191C75.6138 33.191 76.7546 33.0026 77.6973 32.6259C78.6399 32.2492 79.4242 31.7862 80.0659 31.2289C80.4778 30.8757 80.8184 30.4912 81.1195 30.0988C81.1274 30.0831 81.1432 30.0674 81.1512 30.0517C81.1987 29.9889 81.2462 29.9261 81.2938 29.8633C81.468 29.62 81.6344 29.3532 81.7611 29.0706C81.7691 29.0628 81.7691 29.0471 81.7691 29.0392C81.8879 28.8116 81.9909 28.584 82.078 28.3721C82.0939 28.3329 82.1176 28.2936 82.1335 28.2544C82.1968 28.1131 82.2444 27.964 82.2919 27.807C82.2998 27.7756 82.3157 27.7442 82.3236 27.7129C82.3236 27.705 82.3157 27.705 82.3157 27.6972C82.3236 27.6815 82.3236 27.6579 82.3236 27.6422C82.3236 27.6265 82.3315 27.6187 82.3394 27.603H82.3315C82.3791 27.3832 82.4107 27.1556 82.4107 26.9202C82.4107 25.0837 80.8977 23.5846 79.036 23.5846ZM69.3477 18.2163C69.4189 17.3609 69.6011 16.5603 69.8705 15.8304C70.1398 15.0927 70.5597 14.4884 71.1221 14.0018C71.6846 13.523 72.4768 13.2797 73.5066 13.2797C74.2354 13.2797 74.8058 13.4445 75.2098 13.7742C75.6217 14.1038 75.9148 14.5119 76.097 14.9907C76.2792 15.4694 76.3822 15.956 76.4139 16.4348C76.4456 16.9135 76.4614 17.3216 76.4614 17.6513V20.6729H69.1813C69.2209 19.888 69.2684 19.0718 69.3477 18.2163Z" fill="#2F343F"/>
<path d="M111.341 31.9824V13.2798H104.41V13.9155H105.788V31.9824H104.41V32.6103H112.72V31.9824H111.341Z" fill="#2F343F"/>
<path d="M107.555 6.84418C107.563 6.85203 107.57 6.85203 107.586 6.85203C107.784 6.91481 107.982 6.95406 108.188 6.98545C108.965 7.11102 108.711 7.83307 108.093 8.38246C107.959 8.50018 108.085 8.71209 108.252 8.6493C109.218 8.32752 110.921 7.08748 111.706 5.01551C111.769 4.87424 111.817 4.72512 111.864 4.56816C111.872 4.53676 111.888 4.50537 111.896 4.47398C111.896 4.46613 111.888 4.46613 111.888 4.45828C111.951 4.20713 111.983 3.94029 111.983 3.67344C111.983 1.82908 110.478 0.337891 108.616 0.337891C106.754 0.337891 105.249 1.82908 105.249 3.67344C105.249 5.15678 106.216 6.40467 107.555 6.84418Z" fill="#EF3F5F"/>
<path d="M21.8008 31.982L11.3837 18.6869L10.948 18.1453L7.11379 21.6143H6.88406V0.125488H0V0.753357H1.33087V31.982H0V32.6098H8.03273V31.982H6.88406V22.25H7.11379L14.798 31.982H11.5262V32.6098H23.5753V31.982H21.8008Z" fill="#2F343F"/>
<path d="M15.8437 19.8247C15.8437 19.8247 15.8357 19.8247 15.8437 19.8247C15.8516 19.8325 15.8595 19.8325 15.8754 19.8325C16.0734 19.8953 16.2714 19.9345 16.4774 19.9659C17.2538 20.0915 17.0003 20.8135 16.3824 21.3629C16.2477 21.4807 16.3744 21.6926 16.5408 21.6298C17.5073 21.308 19.2104 20.0679 19.9947 17.996C20.0581 17.8547 20.1056 17.7056 20.1531 17.5486C20.1611 17.5172 20.1769 17.4858 20.1848 17.4544C20.1848 17.4466 20.1769 17.4466 20.1769 17.4387C20.2403 17.1876 20.272 16.9208 20.272 16.6539C20.272 14.8095 18.7668 13.3184 16.9052 13.3184C15.0436 13.3184 13.5384 14.8095 13.5384 16.6539C13.5384 18.1294 14.5049 19.3773 15.8437 19.8247Z" fill="#2F343F"/>
<path d="M41.7956 31.982C41.7956 31.9506 41.7956 19.0087 41.7956 19.0087C41.7956 17.7451 41.5737 16.7013 41.1381 15.8772C40.6944 15.0531 40.1082 14.3938 39.3636 13.9151C38.6189 13.4363 37.7396 13.1067 36.7256 12.9262C36.6701 12.9183 36.6147 12.9105 36.5592 12.9026V12.8948C32.7805 12.1021 30.4594 12.6515 29.5009 12.9026C28.4473 13.1852 26.7283 13.97 25.6667 15.6339C25.5717 15.7595 25.2469 16.3324 25.1122 16.8818C24.6924 18.679 25.8965 20.4528 27.7185 20.8295C29.5405 21.2062 31.3229 20.0525 31.7032 18.2474C32.0042 16.8033 31.3229 15.3827 30.103 14.6842C30.0871 14.6764 30.0792 14.6764 30.0713 14.6685C29.897 14.5665 29.7069 14.488 29.5088 14.4174C28.9701 14.2133 29.0414 13.7032 29.4851 13.4442C29.9841 13.1538 31.4576 12.8556 33.8104 13.0989C34.6422 13.1852 35.3234 13.5541 35.6641 14.1113C36.0602 14.7706 36.2582 15.5083 36.2582 16.3167V22.7445L32.028 22.7523C31.1566 22.7523 29.4375 22.8308 28.0908 23.2468C27.3699 23.4744 26.7441 23.8354 26.1817 24.2357C25.6192 24.6438 25.1677 25.1382 24.8191 25.719C24.4705 26.3076 24.2963 27.2102 24.2963 28.0814C24.2963 28.9212 24.4943 29.7923 24.8904 30.3809C25.2865 30.9696 25.8886 31.4248 26.5144 31.7858C27.7502 32.5078 30.2455 32.6099 30.9744 32.6099C31.109 32.6099 31.2437 32.6099 31.3863 32.6099H38.6427H40.4647H43.1027V31.9742H41.7956V31.982ZM36.2424 31.9506C36.2265 31.9506 33.7311 31.9506 33.3351 31.9506C32.6379 31.9506 31.8141 31.825 31.418 31.5111C31.0219 31.1972 30.7288 30.8126 30.5307 30.3652C30.3327 29.9179 30.2139 29.447 30.1663 28.9682C30.1188 28.4895 30.095 28.0657 30.095 27.7047C30.095 26.8021 30.2376 25.4679 30.5307 24.9028C30.5624 24.8479 30.5941 24.7851 30.6337 24.7223C31.1645 23.8747 32.1389 23.3881 33.1529 23.3881H36.2424V31.9506Z" fill="#2F343F"/>
<path d="M102.635 16.8816C102.508 16.3243 102.176 15.7593 102.081 15.6337C101.019 13.9698 99.1891 13.0751 98.2464 12.9025C95.5055 12.4002 93.2557 12.7847 91.9486 13.2792H85.3972V13.907H86.6885V31.974H85.3972V32.6018H94.1588V31.974H92.2338L92.1466 13.7815C93.8498 13.083 96.8047 12.9574 98.2543 13.4361C98.7455 13.5931 98.7693 14.2053 98.2306 14.4093C98.0325 14.48 97.8424 14.5585 97.6681 14.6605C97.6602 14.6683 97.6444 14.6683 97.6364 14.6762C96.4165 15.3825 95.7273 16.7952 96.0362 18.2393C96.4165 20.0445 98.1989 21.1982 100.021 20.8214C101.851 20.4604 103.055 18.6788 102.635 16.8816Z" fill="#2F343F"/>
<path d="M54.4229 18.2474C54.8031 20.0526 56.5855 21.2063 58.4076 20.8295C60.2296 20.4528 61.4337 18.6712 61.0138 16.8818C60.8871 16.3246 60.5544 15.7595 60.4593 15.6339C59.3978 13.9701 57.8134 13.1382 56.6251 12.9027C55.0566 12.5966 53.6465 12.5966 52.482 12.7457V0H51.9671C51.9671 0 51.2462 3.65734 46.9447 3.65734V13.8367C45.6059 13.9701 44.2196 13.8994 43.364 13.6169C43.3402 13.6091 43.3244 13.5934 43.3006 13.5855V14.1349C43.3244 14.1427 43.3482 14.1506 43.3719 14.1506C44.687 14.4096 45.8911 14.4488 46.9367 14.3703V27.791C46.9367 28.3326 46.9684 28.9212 47.0239 29.5491C47.0873 30.1769 47.317 30.7656 47.7289 31.3071C48.1409 31.8486 48.7746 32.296 49.6381 32.657C50.5016 33.018 51.7215 33.1986 53.298 33.1986C53.8763 33.1986 54.4783 33.1436 55.12 33.0416C55.7537 32.9317 56.3558 32.7198 56.9183 32.3902C57.4807 32.0605 57.9798 31.5896 58.4155 30.9696C58.8512 30.3575 59.1681 29.5334 59.3503 28.5131L58.669 28.3797C58.5501 28.827 58.3917 29.2979 58.1937 29.7767C57.9956 30.2554 57.7421 30.6871 57.4411 31.0638C57.1401 31.4405 56.7836 31.7466 56.3716 31.9899C55.9597 32.2332 55.4686 32.3509 54.8903 32.3509C54.3753 32.3509 53.9555 32.2646 53.6386 32.0841C53.3217 31.9036 53.0762 31.6524 52.9098 31.3385C52.7435 31.0246 52.6325 30.6714 52.5692 30.279C52.5058 29.8866 52.482 29.4706 52.482 29.0154V13.303C53.9872 13.0832 55.6587 13.1303 56.641 13.4521C57.1321 13.6091 57.1559 14.2212 56.6172 14.4253C56.4192 14.4959 56.2291 14.5744 56.0548 14.6764C56.0469 14.6843 56.031 14.6843 56.0231 14.6921C54.811 15.3906 54.1218 16.8112 54.4229 18.2474Z" fill="#2F343F"/>
</svg>
