<svg width="377" height="56" viewBox="0 0 377 56" fill="none" xmlns="http://www.w3.org/2000/svg">
<rect x="196" width="140" height="44" rx="22" fill="#F3F4F5"/>
<path d="M375.252 22.7146C375.941 21.9251 376.286 20.9913 376.286 19.9132C376.286 18.9356 375.928 18.0896 375.215 17.3747C374.501 16.66 373.655 16.3028 372.677 16.3028H367.469C367.519 16.1273 367.569 15.9769 367.619 15.8516C367.669 15.7263 367.739 15.5883 367.826 15.4379C367.913 15.2874 367.976 15.1745 368.014 15.0994C368.239 14.6735 368.412 14.3223 368.531 14.0468C368.65 13.7707 368.769 13.3948 368.888 12.9185C369.007 12.4424 369.067 11.9659 369.067 11.4896C369.067 11.1889 369.063 10.9442 369.057 10.7564C369.051 10.5683 369.019 10.2862 368.963 9.91014C368.907 9.53425 368.831 9.22085 368.738 8.97027C368.643 8.71963 368.493 8.43738 368.286 8.12425C368.079 7.81052 367.829 7.55705 367.534 7.36265C367.239 7.16838 366.863 7.00545 366.406 6.87394C365.948 6.7423 365.431 6.67651 364.854 6.67651C364.528 6.67651 364.247 6.79564 364.008 7.03384C363.758 7.28448 363.544 7.59781 363.369 7.9737C363.193 8.3498 363.071 8.67571 363.002 8.95157C362.933 9.2273 362.855 9.60971 362.767 10.0984C362.654 10.6251 362.57 11.004 362.513 11.2359C362.457 11.4678 362.347 11.7717 362.184 12.1477C362.021 12.5239 361.827 12.8245 361.601 13.0503C361.188 13.4638 360.555 14.2159 359.702 15.3063C359.088 16.1084 358.455 16.8668 357.803 17.5813C357.151 18.2959 356.675 18.6656 356.374 18.6907C356.061 18.7157 355.791 18.8442 355.566 19.0762C355.34 19.3081 355.227 19.5808 355.227 19.8941V31.946C355.227 32.2719 355.346 32.5507 355.584 32.7825C355.823 33.0147 356.105 33.1368 356.431 33.1494C356.869 33.162 357.859 33.4374 359.401 33.9769C360.366 34.3023 361.121 34.5502 361.667 34.7192C362.212 34.8882 362.974 35.0701 363.951 35.2646C364.929 35.4588 365.831 35.5562 366.658 35.5562H366.978H368.407H369.083C370.751 35.5312 371.985 35.0422 372.788 34.0898C373.514 33.2248 373.821 32.0904 373.709 30.6865C374.198 30.2228 374.536 29.6339 374.724 28.9193C374.937 28.1551 374.937 27.4218 374.724 26.7199C375.3 25.9553 375.57 25.0967 375.532 24.1441C375.534 23.7426 375.44 23.2664 375.252 22.7146Z" fill="#0084FF"/>
<path d="M352.821 18.71H347.406C347.08 18.71 346.798 18.8291 346.56 19.0673C346.322 19.3053 346.203 19.5874 346.203 19.9133V31.9469C346.203 32.2724 346.322 32.5546 346.56 32.793C346.798 33.0308 347.08 33.15 347.406 33.15H352.821C353.147 33.15 353.429 33.0308 353.667 32.793C353.905 32.5546 354.024 32.2725 354.024 31.9469V19.9133C354.024 19.5874 353.905 19.3054 353.667 19.0673C353.429 18.829 353.147 18.71 352.821 18.71ZM350.659 30.3954C350.421 30.6272 350.139 30.7431 349.813 30.7431C349.474 30.7431 349.189 30.6272 348.957 30.3954C348.725 30.1635 348.61 29.8784 348.61 29.5399C348.61 29.2141 348.725 28.9319 348.957 28.6939C349.189 28.4557 349.474 28.3364 349.813 28.3364C350.139 28.3364 350.421 28.4557 350.659 28.6939C350.897 28.9319 351.016 29.214 351.016 29.5399C351.016 29.8784 350.897 30.1634 350.659 30.3954Z" fill="#0084FF"/>
<g clip-path="url(#clip0)">
<path d="M312.678 6.0752C303.877 6.0752 296.677 13.2759 296.677 22.0768C296.677 30.8777 303.877 38.0784 312.678 38.0784C321.479 38.0784 328.68 30.8777 328.68 22.0768C328.68 13.2759 321.479 6.0752 312.678 6.0752ZM318.279 15.6762C319.559 15.6762 320.679 16.7963 320.679 18.0764C320.679 19.3565 319.559 20.4766 318.279 20.4766C316.999 20.4766 315.879 19.3565 315.879 18.0764C315.879 16.7963 316.999 15.6762 318.279 15.6762ZM307.078 15.6762C308.358 15.6762 309.478 16.7963 309.478 18.0764C309.478 19.3565 308.358 20.4766 307.078 20.4766C305.798 20.4766 304.678 19.3565 304.678 18.0764C304.678 16.7963 305.798 15.6762 307.078 15.6762ZM312.678 31.6777C308.518 31.6777 304.998 28.9575 303.717 25.2771H321.639C320.359 28.9575 316.839 31.6777 312.678 31.6777Z" fill="#0084FF"/>
</g>
<path d="M219.267 24.7512H213.739L212.497 28.1953H210.702L215.742 14.999H217.264L222.313 28.1953H220.527L219.267 24.7512ZM214.264 23.3192H218.751L216.503 17.147L214.264 23.3192ZM230.623 28.1953C230.526 28.002 230.448 27.6576 230.387 27.1621C229.608 27.9717 228.677 28.3766 227.596 28.3766C226.629 28.3766 225.835 28.1047 225.212 27.5609C224.596 27.011 224.288 26.3162 224.288 25.4763C224.288 24.4551 224.674 23.6636 225.448 23.1017C226.227 22.5337 227.321 22.2497 228.729 22.2497H230.36V21.4793C230.36 20.8932 230.185 20.428 229.835 20.0836C229.484 19.7331 228.968 19.5579 228.285 19.5579C227.687 19.5579 227.185 19.7089 226.78 20.0111C226.375 20.3132 226.173 20.6787 226.173 21.1077H224.487C224.487 20.6183 224.659 20.147 225.004 19.6938C225.354 19.2346 225.826 18.8721 226.418 18.6062C227.016 18.3404 227.671 18.2074 228.384 18.2074C229.514 18.2074 230.4 18.4914 231.04 19.0594C231.68 19.6213 232.013 20.3978 232.037 21.3887V25.9023C232.037 26.8026 232.152 27.5186 232.381 28.0503V28.1953H230.623ZM227.841 26.9174C228.366 26.9174 228.865 26.7814 229.336 26.5095C229.807 26.2376 230.149 25.8841 230.36 25.4491V23.437H229.046C226.992 23.437 225.965 24.0382 225.965 25.2406C225.965 25.7663 226.14 26.1772 226.49 26.4733C226.841 26.7693 227.291 26.9174 227.841 26.9174Z" fill="#9A9A9A"/>
<path d="M175.22 28.182C176.811 28.182 178.173 27.6155 179.306 26.4831C180.439 25.3507 181.005 23.9883 181.005 22.3973V13.1412C181.005 11.5502 180.439 10.1884 179.306 9.05538C178.173 7.92262 176.811 7.35583 175.22 7.35583C173.629 7.35583 172.267 7.92262 171.134 9.05538C170.001 10.1882 169.435 11.5502 169.435 13.1412V22.3973C169.435 23.9883 170.002 25.3507 171.134 26.4831C172.267 27.6155 173.629 28.182 175.22 28.182Z" fill="#0084FF"/>
<path d="M185.29 19.2696C185.061 19.0406 184.79 18.926 184.476 18.926C184.163 18.926 183.892 19.0406 183.663 19.2696C183.434 19.4986 183.319 19.7697 183.319 20.083V22.3972C183.319 24.627 182.527 26.5341 180.942 28.119C179.357 29.7039 177.45 30.4964 175.22 30.4964C172.99 30.4964 171.083 29.7039 169.498 28.119C167.913 26.5346 167.121 24.627 167.121 22.3972V20.083C167.121 19.7697 167.006 19.4986 166.778 19.2696C166.548 19.0406 166.278 18.926 165.964 18.926C165.65 18.926 165.379 19.0406 165.15 19.2696C164.921 19.4986 164.807 19.7697 164.807 20.083V22.3972C164.807 25.0608 165.696 27.378 167.473 29.3483C169.251 31.3188 171.448 32.4486 174.063 32.7377V35.1243H169.435C169.122 35.1243 168.85 35.239 168.621 35.468C168.392 35.6969 168.278 35.9681 168.278 36.2815C168.278 36.5944 168.392 36.8662 168.621 37.095C168.85 37.3238 169.122 37.4387 169.435 37.4387H181.005C181.318 37.4387 181.59 37.3239 181.818 37.095C182.048 36.8662 182.162 36.5944 182.162 36.2815C182.162 35.9682 182.048 35.6969 181.818 35.468C181.59 35.239 181.318 35.1243 181.005 35.1243H176.377V32.7377C178.993 32.4486 181.189 31.3188 182.967 29.3483C184.745 27.378 185.634 25.0608 185.634 22.3972V20.083C185.634 19.7698 185.519 19.4988 185.29 19.2696Z" fill="#0084FF"/>
<rect x="108.413" y="9.27524" width="25.6026" height="26.2426" rx="2.56026" stroke="#0084FF" stroke-width="2.56026"/>
<path d="M119.427 22.2395C120.791 21.7198 122.292 21.682 123.68 22.1324L132.171 24.886C132.902 25.1231 133.421 25.7733 133.491 26.5387L134.143 33.7178C134.246 34.8517 133.346 35.8257 132.207 35.8117L110.243 35.5405C109.219 35.5279 108.385 34.713 108.348 33.689L108.142 27.9307C108.113 27.1093 108.61 26.3603 109.378 26.0677L119.427 22.2395Z" fill="#0084FF"/>
<circle cx="114.494" cy="14.7162" r="2.88029" fill="#0084FF"/>
<path d="M80.256 13.2394C79.4058 12.3893 78.3803 11.9642 77.1788 11.9642H73.3704L72.5035 9.65211C72.288 9.09681 71.8943 8.61785 71.3216 8.21529C70.7492 7.81291 70.1627 7.61157 69.5619 7.61157H60.8568C60.256 7.61157 59.6694 7.81291 59.097 8.21529C58.5245 8.61785 58.1308 9.09681 57.9154 9.65211L57.0483 11.9642H53.2399C52.0382 11.9642 51.0127 12.3893 50.1625 13.2394C49.3125 14.0894 48.8875 15.1151 48.8875 16.3167V31.5503C48.8875 32.7519 49.3125 33.7778 50.1625 34.6276C51.0127 35.4778 52.0383 35.9029 53.2399 35.9029H77.1784C78.3799 35.9029 79.4054 35.4778 80.2556 34.6276C81.1056 33.7778 81.5307 32.7519 81.5307 31.5503V16.3167C81.5309 15.1151 81.1058 14.0894 80.256 13.2394ZM70.5902 29.3148C69.0998 30.8053 67.3062 31.5508 65.2092 31.5508C63.1121 31.5508 61.3187 30.8053 59.8281 29.3148C58.3375 27.8245 57.5924 26.0305 57.5924 23.9339C57.5924 21.8367 58.3377 20.0434 59.8281 18.5528C61.3185 17.0622 63.1122 16.317 65.2092 16.317C67.3062 16.317 69.0998 17.0623 70.5902 18.5528C72.0808 20.0432 72.826 21.8367 72.826 23.9339C72.826 26.0305 72.0808 27.8243 70.5902 29.3148Z" fill="#0084FF"/>
<path d="M65.2092 19.0369C63.8603 19.0369 62.707 19.5158 61.7492 20.4737C60.7914 21.4315 60.3125 22.5846 60.3125 23.9338C60.3125 25.2824 60.7914 26.4357 61.7492 27.3935C62.707 28.3511 63.8603 28.83 65.2092 28.83C66.5579 28.83 67.7113 28.3511 68.6691 27.3935C69.6269 26.4357 70.1059 25.2825 70.1059 23.9338C70.1059 22.5847 69.6269 21.4316 68.6691 20.4737C67.7114 19.5158 66.5579 19.0369 65.2092 19.0369Z" fill="#0084FF"/>
<circle cx="19.1205" cy="15.1205" r="5.12051" fill="#0084FF"/>
<circle cx="5.52273" cy="15.0365" r="5.12051" fill="#0084FF"/>
<circle cx="19.6042" cy="29.7572" r="5.12051" fill="#0084FF"/>
<circle cx="5.52273" cy="29.7572" r="5.12051" fill="#0084FF"/>
<defs>
<clipPath id="clip0">
<rect width="32.0032" height="32.0032" fill="white" transform="translate(296.677 6.0752)"/>
</clipPath>
</defs>
</svg>
