<svg width="376" height="31" viewBox="0 0 376 31" fill="none" xmlns="http://www.w3.org/2000/svg">
<path d="M310.871 24.4411L306.126 19.6959C305.181 18.7546 303.616 18.7832 302.638 19.7616L300.248 22.1514C300.097 22.0682 299.94 21.9813 299.776 21.889C298.266 21.0526 296.2 19.9062 294.026 17.7306C291.846 15.5503 290.698 13.4811 289.859 11.9707C289.771 11.8106 289.686 11.6564 289.602 11.5098L291.207 9.90791L291.995 9.1182C292.975 8.13846 293.002 6.57387 292.059 5.62987L287.314 0.884122C286.371 -0.0585498 284.806 -0.0299519 283.826 0.949791L282.489 2.29469L282.525 2.33096C282.077 2.9031 281.702 3.56297 281.424 4.27456C281.167 4.95191 281.007 5.59827 280.933 6.24596C280.307 11.4398 282.68 16.1866 289.122 22.628C298.025 31.5311 305.201 30.8585 305.51 30.8257C306.184 30.7451 306.83 30.584 307.487 30.329C308.192 30.0535 308.852 29.6793 309.424 29.2319L309.453 29.2578L310.808 27.9313C311.785 26.9517 311.813 25.3866 310.871 24.4411Z" fill="#0084FF"/>
<rect x="1.21655" y="14.9385" width="19.6369" height="3.20032" rx="1.60016" transform="rotate(-44.1173 1.21655 14.9385)" fill="#0084FF"/>
<rect width="19.6369" height="3.20032" rx="1.60016" transform="matrix(-0.717917 -0.696129 -0.696129 0.717917 17.288 26.6318)" fill="#0084FF"/>
<rect x="341.002" y="4.00195" width="24.3224" height="23.0423" rx="3.20032" fill="#0084FF"/>
<path d="M367.885 12.5362C367.885 12.0194 368.196 11.5533 368.673 11.3545L373.793 9.22096C374.636 8.86962 375.566 9.48914 375.566 10.4026V20.6436C375.566 21.5571 374.636 22.1766 373.793 21.8253L368.673 19.6917C368.196 19.493 367.885 19.0269 367.885 18.5101V12.5362Z" fill="#0084FF"/>
</svg>
