<svg width="20" height="20" viewBox="0 0 20 20" fill="none" xmlns="http://www.w3.org/2000/svg">
<path d="M10.0064 0.0419922C4.52637 0.0419922 0.0854492 4.48409 0.0854492 9.96298C0.0854492 15.4425 4.52692 19.884 10.0064 19.884C15.4853 19.884 19.9268 15.4425 19.9268 9.96298C19.9268 4.48472 15.4853 0.0419922 10.0064 0.0419922ZM10.0064 18.0238C5.55442 18.0238 1.94567 14.415 1.94567 9.96298C1.94567 5.51096 5.55504 1.90221 10.0064 1.90221C14.4578 1.90221 18.0666 5.51096 18.0666 9.96298C18.0666 14.415 14.4579 18.0238 10.0064 18.0238ZM13.9054 5.74285C13.4837 5.49113 12.9449 5.64054 12.7025 6.07767L9.37585 12.0532L7.52312 9.79803C7.18768 9.41174 6.74187 9.21149 6.32083 9.46321C5.89916 9.71556 5.72492 10.3226 5.9978 10.712L8.576 13.8502C8.76884 14.1006 8.98893 14.2507 9.21901 14.2935L9.22089 14.2973L9.24447 14.2985C9.29656 14.3066 10.0754 14.4504 10.4108 13.8502L14.2292 6.99176C14.4715 6.55386 14.3271 5.9952 13.9054 5.74285Z" fill="#0084FF"/>
</svg>
