<svg width="27" height="45" viewBox="0 0 27 45" fill="none" xmlns="http://www.w3.org/2000/svg">
<path d="M25.5 0.75C25.5 0.551088 25.421 0.360324 25.2803 0.219672C25.1397 0.0790202 24.9489 1.98909e-06 24.75 0H2.25002C2.05111 1.98909e-06 1.86034 0.0790202 1.71969 0.219672C1.57904 0.360324 1.50002 0.551088 1.50002 0.75V4.95222C0.530766 6.02702 -0.00392011 7.424 2.16398e-05 8.87128V44.25C2.36289e-05 44.4489 0.0790419 44.6397 0.219693 44.7803C0.360345 44.921 0.551109 45 0.75002 45H9.00001C9.19892 45 9.38968 44.921 9.53033 44.7803C9.67099 44.6397 9.75 44.4489 9.75001 44.25V40.5677L13.5 19.9427L17.25 40.5677V44.25C17.25 44.4489 17.329 44.6397 17.4697 44.7803C17.6103 44.921 17.8011 45 18 45H26.25C26.4489 45 26.6397 44.921 26.7803 44.7803C26.921 44.6397 27 44.4489 27 44.25V8.87128C27.0039 7.424 26.4692 6.02702 25.5 4.95223V0.75ZM3.00002 1.5H24V4.5H17.25V3.75C17.6642 3.75 18 3.41421 18 3C18 2.58579 17.6642 2.25 17.25 2.25H15.75C15.3358 2.25 15 2.58579 15 3C15 3.41421 15.3358 3.75 15.75 3.75V4.5H11.25V3.75C11.6642 3.75 12 3.41421 12 3C12 2.58579 11.6642 2.25 11.25 2.25H9.75001C9.33579 2.25 9.00001 2.58579 9.00001 3C9.00001 3.41421 9.33579 3.75 9.75001 3.75V4.5H3.00002V1.5ZM1.50002 43.5V41.25H8.25001V43.5H1.50002ZM13.5 15C13.3244 15 13.1543 15.0616 13.0194 15.1742C12.8846 15.2867 12.7935 15.4431 12.7621 15.6159L8.37406 39.75H1.50002V8.87128C1.49738 7.81504 1.88018 6.79412 2.57661 6H9.75001V9C9.75001 9.41421 10.0858 9.75 10.5 9.75C10.9142 9.75 11.25 9.41421 11.25 9V6H15.75V9C15.75 9.41421 16.0858 9.75 16.5 9.75C16.9142 9.75 17.25 9.41421 17.25 9V6H24.4234C25.1198 6.79412 25.5026 7.81504 25.5 8.87128V39.75H18.6259L14.2379 15.6159C14.2065 15.4431 14.1154 15.2867 13.9806 15.1742C13.8457 15.0616 13.6756 15 13.5 15ZM18.75 43.5V41.25H25.5V43.5H18.75Z" fill="#2F343F"/>
</svg>
