<svg width="39" height="45" viewBox="0 0 39 45" fill="none" xmlns="http://www.w3.org/2000/svg">
<path d="M38.5511 34.7327L37.7488 11.0917C37.6798 9.05808 36.4216 7.23822 34.5432 6.45564L31.4508 5.16708L28.969 1.06497C28.5717 0.408075 27.848 0 27.0802 0H12.2407C11.4729 0 10.7491 0.408075 10.3517 1.06497L7.86995 5.16708L4.77752 6.45564C2.89922 7.23831 1.64098 9.05799 1.5719 11.0917L0.769632 34.7326C0.749242 35.3309 1.10458 35.8871 1.65443 36.1213L1.52848 38.7666C1.50009 39.3637 1.84849 39.927 2.39543 40.1682L7.68239 42.5V43.5438C7.68239 44.3468 8.33559 45 9.13856 45H30.1823C30.9853 45 31.6385 44.3468 31.6385 43.5438V42.5L36.9254 40.1682C37.4723 39.927 37.8207 39.3638 37.7923 38.7666L37.6664 36.1213C38.2161 35.887 38.5715 35.3308 38.5511 34.7327ZM27.7296 1.74586C27.741 1.76194 27.7531 1.77732 27.7635 1.79446L29.2488 4.24959L28.9223 4.11354C28.2568 3.83624 27.4962 3.90181 26.8879 4.28897L20.4927 8.35865C20.0449 8.64367 19.4812 8.67576 19.0068 8.45568L27.7296 1.74586ZM25.8561 1.40915L19.8804 6.00582L13.56 1.40915H25.8561ZM11.5574 1.79437C11.5713 1.77134 11.5873 1.7499 11.6034 1.72863L18.7161 6.90151L17.7302 7.65983L12.433 4.28888C11.8247 3.90172 11.0642 3.83615 10.3986 4.11345L10.0721 4.2495L11.5574 1.79437ZM2.96391 38.8788C2.94641 38.8711 2.93525 38.8529 2.93613 38.8336L3.03791 36.6966L6.26903 38.0388L6.21884 39.7293C6.21339 39.9404 6.238 40.1471 6.28959 40.3456L2.96391 38.8788ZM30.2293 42.0488C30.2293 42.0503 30.2293 42.0517 30.2293 42.0532V43.5437C30.2293 43.5696 30.2083 43.5907 30.1823 43.5907H9.13847C9.11254 43.5907 9.09154 43.5695 9.09154 43.5437V42.0532C9.09154 42.0517 9.09154 42.0503 9.09154 42.0488V41.9937H30.2293V42.0488ZM36.3566 38.8789L33.0308 40.3458C33.0826 40.1467 33.1072 39.9389 33.1017 39.7266L33.0516 38.0389L36.2828 36.6966L36.3846 38.8337C36.3856 38.8529 36.3743 38.8711 36.3566 38.8789ZM37.1138 34.8255L33.007 36.5315L32.3896 15.715C32.3781 15.3261 32.0505 15.019 31.6644 15.0316C31.2754 15.0432 30.9695 15.3679 30.9811 15.7568L31.693 39.7655C31.6986 39.9826 31.6182 40.1878 31.4666 40.3433C31.3151 40.4989 31.112 40.5845 30.8948 40.5845H8.42603C8.20885 40.5845 8.00574 40.4988 7.85422 40.3433C7.70261 40.1878 7.62219 39.9825 7.62772 39.7683L8.33972 15.7568C8.35124 15.3678 8.04529 15.0432 7.65638 15.0316C7.26895 15.0191 6.94279 15.326 6.93119 15.715L6.31385 36.5315L2.20699 34.8255C2.18906 34.8181 2.17746 34.8 2.17808 34.7805L2.98034 11.1395C3.0307 9.65556 3.94889 8.32753 5.31954 7.75642L10.9405 5.41432C11.1811 5.31403 11.4562 5.33776 11.6764 5.47768L17.4526 9.15362V19.4937C17.4526 19.8828 17.7681 20.1983 18.1573 20.1983C18.5464 20.1983 18.8619 19.8828 18.8619 19.4937V9.89849C19.3836 10.0437 19.9373 10.0437 20.4589 9.89849V19.4937C20.4589 19.8828 20.7744 20.1983 21.1636 20.1983C21.5527 20.1983 21.8682 19.8828 21.8682 19.4937V9.1537L27.6445 5.47777C27.8644 5.33776 28.1397 5.31412 28.3803 5.41432L34.0013 7.75642C35.3719 8.32753 36.2901 9.65556 36.3405 11.1395L37.1427 34.7805C37.1434 34.8 37.1318 34.818 37.1138 34.8255Z" fill="#2F343F"/>
<path d="M28.5318 36.4171C28.51 36.3807 26.3419 32.7227 25.6189 27.6612C25.5693 27.3141 25.2721 27.0563 24.9213 27.0563H14.3995C14.0489 27.0563 13.7516 27.3141 13.7019 27.6612C12.9811 32.7067 10.8106 36.3811 10.789 36.4171C10.6584 36.6348 10.655 36.9058 10.7801 37.1268C10.9051 37.3477 11.1393 37.4842 11.3932 37.4842H27.9276C28.1814 37.4842 28.4157 37.3477 28.5407 37.1268C28.6658 36.9058 28.6624 36.6348 28.5318 36.4171ZM12.5655 36.0751C13.2649 34.6537 14.4274 31.9174 15.0033 28.4655H24.3177C24.8935 31.9174 26.0561 34.6537 26.7555 36.0751H12.5655Z" fill="#2F343F"/>
</svg>
