<svg width="47" height="45" viewBox="0 0 47 45" fill="none" xmlns="http://www.w3.org/2000/svg">
<path d="M44.8423 25.137C45.8837 23.9442 46.4046 22.5337 46.4046 20.9051C46.4046 19.4282 45.8642 18.1502 44.7871 17.0703C43.7078 15.9906 42.4299 15.451 40.953 15.451H33.0858C33.1614 15.186 33.2372 14.9587 33.3128 14.7694C33.3877 14.5801 33.493 14.3716 33.625 14.1444C33.7571 13.9171 33.8521 13.7466 33.9087 13.6332C34.2494 12.9897 34.5103 12.4592 34.6903 12.0429C34.8701 11.6259 35.0491 11.0581 35.2295 10.3385C35.4097 9.61938 35.4992 8.89953 35.4992 8.17998C35.4992 7.72575 35.4938 7.35618 35.4848 7.07236C35.4759 6.78834 35.4277 6.36216 35.3432 5.79402C35.2575 5.22618 35.1437 4.75275 35.002 4.37422C34.8598 3.99559 34.6323 3.56922 34.3205 3.09618C34.0079 2.62225 33.6294 2.23935 33.184 1.94568C32.7387 1.65221 32.1709 1.40609 31.4798 1.20743C30.788 1.00856 30.0074 0.90918 29.1358 0.90918C28.6436 0.90918 28.2179 1.08914 27.8578 1.44897C27.4791 1.82759 27.1567 2.30093 26.8919 2.86877C26.6267 3.4369 26.4419 3.92924 26.3377 4.34597C26.2335 4.7625 26.115 5.34018 25.983 6.07844C25.812 6.87409 25.6848 7.44651 25.599 7.79678C25.514 8.14705 25.3478 8.60616 25.1019 9.1741C24.8555 9.74244 24.5623 10.1966 24.2214 10.5376C23.5967 11.1623 22.6405 12.2985 21.3527 13.9457C20.4246 15.1574 19.4685 16.3029 18.4839 17.3823C17.4991 18.4619 16.7797 19.0204 16.3254 19.0583C15.8523 19.0961 15.4452 19.2902 15.1042 19.6406C14.7633 19.9909 14.5929 20.4029 14.5929 20.8761V39.0822C14.5929 39.5745 14.7727 39.9957 15.1325 40.3459C15.4921 40.6966 15.9182 40.8811 16.4105 40.9001C17.0732 40.9191 18.5691 41.3353 20.8982 42.1502C22.356 42.6418 23.4967 43.0163 24.3204 43.2716C25.1439 43.5268 26.295 43.8016 27.7708 44.0955C29.248 44.3889 30.6111 44.536 31.8605 44.536H32.3435H34.5022H35.5245C38.0435 44.4982 39.9077 43.7594 41.12 42.3207C42.2179 41.014 42.6816 39.3004 42.5118 37.1796C43.2501 36.4791 43.7618 35.5895 44.0454 34.5099C44.3668 33.3556 44.3668 32.2477 44.0454 31.1876C44.9162 30.0325 45.3234 28.7354 45.2662 27.2963C45.2686 26.6898 45.1269 25.9705 44.8423 25.137Z" fill="#0084FF"/>
<path d="M10.958 19.0873H2.77821C2.28557 19.0873 1.85949 19.2672 1.49977 19.6271C1.14005 19.9867 0.960083 20.4128 0.960083 20.9051V39.0836C0.960083 39.5752 1.14004 40.0015 1.49987 40.3616C1.85989 40.7208 2.28597 40.9009 2.77831 40.9009H10.958C11.4502 40.9009 11.8761 40.7208 12.236 40.3616C12.5957 40.0015 12.7756 39.5753 12.7756 39.0836V20.9051C12.7756 20.4128 12.5956 19.9868 12.236 19.6271C11.8762 19.2671 11.4503 19.0873 10.958 19.0873ZM7.6915 36.7397C7.33177 37.09 6.90579 37.265 6.41346 37.265C5.90212 37.265 5.47127 37.09 5.12119 36.7397C4.77092 36.3894 4.59583 35.9587 4.59583 35.4474C4.59583 34.9552 4.77082 34.529 5.12119 34.1694C5.47137 33.8095 5.90212 33.6294 6.41346 33.6294C6.90579 33.6294 7.33177 33.8095 7.6915 34.1694C8.05132 34.5289 8.23128 34.9551 8.23128 35.4474C8.23128 35.9587 8.05172 36.3893 7.6915 36.7397Z" fill="#0084FF"/>
</svg>
